<svg width="64" height="64" viewBox="0 0 64 64" fill="none" xmlns="http://www.w3.org/2000/svg">
<path d="M39.296 33.056C44.691 34.6333 49.4296 37.9164 52.8016 42.4135C56.1736 46.9105 57.9976 52.3792 58 58H6C6.00115 52.3788 7.82457 46.9095 11.1968 42.4123C14.569 37.915 19.3083 34.6321 24.704 33.056L32 44L39.296 33.056ZM45 19C45 22.4478 43.6304 25.7544 41.1924 28.1924C38.7544 30.6304 35.4478 32 32 32C28.5522 32 25.2456 30.6304 22.8076 28.1924C20.3696 25.7544 19 22.4478 19 19C19 15.5522 20.3696 12.2456 22.8076 9.80761C25.2456 7.36964 28.5522 6 32 6C35.4478 6 38.7544 7.36964 41.1924 9.80761C43.6304 12.2456 45 15.5522 45 19Z" fill="white"/>
</svg>
