<svg width="20" height="13" viewBox="0 0 20 13" fill="none" xmlns="http://www.w3.org/2000/svg">
<g clip-path="url(#clip0_7_19)">
<mask id="mask0_7_19" style="mask-type:luminance" maskUnits="userSpaceOnUse" x="0" y="0" width="20" height="13">
<path d="M18.5714 0.498573H1.42857C0.639593 0.498573 0 1.05662 0 1.74501V11.7165C0 12.4049 0.639593 12.963 1.42857 12.963H18.5714C19.3604 12.963 20 12.4049 20 11.7165V1.74501C20 1.05662 19.3604 0.498573 18.5714 0.498573Z" fill="white"/>
</mask>
<g mask="url(#mask0_7_19)">
<path d="M18.5714 0.498573H1.42857C0.639593 0.498573 0 1.05662 0 1.74501V11.7165C0 12.4049 0.639593 12.963 1.42857 12.963H18.5714C19.3604 12.963 20 12.4049 20 11.7165V1.74501C20 1.05662 19.3604 0.498573 18.5714 0.498573Z" fill="white"/>
<mask id="mask1_7_19" style="mask-type:alpha" maskUnits="userSpaceOnUse" x="0" y="0" width="20" height="13">
<path d="M18.5714 0.498573H1.42857C0.639593 0.498573 0 1.05662 0 1.74501V11.7165C0 12.4049 0.639593 12.963 1.42857 12.963H18.5714C19.3604 12.963 20 12.4049 20 11.7165V1.74501C20 1.05662 19.3604 0.498573 18.5714 0.498573Z" fill="white"/>
</mask>
<g mask="url(#mask1_7_19)">
<path d="M20 0.498573H0V12.963H20V0.498573Z" fill="#0A17A7"/>
<path fill-rule="evenodd" clip-rule="evenodd" d="M-0.915951 -0.695786L7.61915 4.32723V-0.33238H12.3811V4.32723L20.9161 -0.695786L21.9813 0.682005L15.2331 4.65337H20.0001V8.80815H15.2331L21.9813 12.7796L20.9161 14.1574L12.3811 9.13434V13.7939H7.61915V9.13434L-0.915951 14.1574L-1.98108 12.7796L4.76706 8.80815H9.88245e-05V4.65337H4.76706L-1.98108 0.682005L-0.915951 -0.695786Z" fill="white"/>
<path d="M13.3345 4.44492L22.3811 -0.747864" stroke="#DB1F35" stroke-width="1.52381" stroke-linecap="round"/>
<path d="M14.2949 9.03512L22.4048 13.8045" stroke="#DB1F35" stroke-width="1.52381" stroke-linecap="round"/>
<path d="M5.7182 4.43137L-2.74109 -0.54282" stroke="#DB1F35" stroke-width="1.52381" stroke-linecap="round"/>
<path d="M6.63571 8.97741L-2.74109 14.4029" stroke="#DB1F35" stroke-width="1.52381" stroke-linecap="round"/>
<path fill-rule="evenodd" clip-rule="evenodd" d="M0 7.97721H8.57143V12.963H11.4286V7.97721H20V5.48433H11.4286V0.498573H8.57143V5.48433H0V7.97721Z" fill="#E6273E"/>
</g>
</g>
</g>
<defs>
<clipPath id="clip0_7_19">
<rect width="20" height="12.963" fill="white"/>
</clipPath>
</defs>
</svg>
