<svg width="22" height="22" viewBox="0 0 22 22" fill="none" xmlns="http://www.w3.org/2000/svg">
<path d="M21.5 0.5H0.5V21.5H21.5V0.5Z" fill="#FFCA28"/>
<path d="M13.25 17.9659L14.7961 16.9428C14.9173 17.3235 15.6846 18.2276 16.6539 18.2276C17.6231 18.2276 18.0731 17.6982 18.0731 17.3472C18.0731 16.3908 17.0834 16.0536 16.608 15.8917C16.5305 15.8653 16.4668 15.8436 16.4231 15.8246C16.4007 15.8148 16.3669 15.8019 16.3234 15.7853C15.7948 15.5833 13.8442 14.8381 13.8442 12.678C13.8442 10.2987 16.1403 10.0251 16.6596 10.0251C16.9993 10.0251 18.6327 10.0668 19.4461 11.5954L17.9461 12.6423C17.6173 11.9761 17.071 11.7561 16.7347 11.7561C15.9039 11.7561 15.7308 12.3651 15.7308 12.6423C15.7308 13.4202 16.6334 13.7689 17.3955 14.0633C17.5949 14.1403 17.7846 14.2136 17.9461 14.2899C18.7769 14.6825 20 15.3249 20 17.3472C20 18.3602 19.1504 20.0001 17.0115 20.0001C14.1384 20.0001 13.3769 18.2752 13.25 17.9659Z" fill="#3E3E3E"/>
<path d="M5.75 18.1691L7.36153 17.1466C7.48775 17.527 7.97848 18.2286 8.69038 18.2286C9.40235 18.2286 9.76678 17.4973 9.76678 17.1466V10.2502H11.7487V17.1466C11.7808 18.0978 11.2532 20.0002 8.9249 20.0002C6.78425 20.0002 5.89432 18.728 5.75 18.1691Z" fill="#3E3E3E"/>
</svg>
