<svg width="24" height="28" viewBox="0 0 24 28" fill="none" xmlns="http://www.w3.org/2000/svg">
<path d="M2.53312 24.5009L0.42749 0.875H23.5725L21.4641 24.4972L11.9859 27.125L2.53312 24.5009Z" fill="#1572B6"/>
<path d="M12 25.1168L19.6594 22.9934L21.4612 2.80713H12V25.1168Z" fill="#33A9DC"/>
<path d="M12 11.3665H15.8344L16.0987 8.39928H12V5.50146H12.0103H19.2656L19.1963 6.27865L18.4847 14.2643H12V11.3665Z" fill="white"/>
<path d="M12.0178 18.892L12.0047 18.8957L8.77779 18.0238L8.57154 15.7129H7.0031H5.66248L6.06841 20.2626L12.0037 21.9107L12.0178 21.907V18.892Z" fill="#EBEBEB"/>
<path d="M15.5878 14.1416L15.2391 18.0219L12.0075 18.8938V21.9088L17.9475 20.2625L17.9916 19.7732L18.495 14.1416H15.5878Z" fill="white"/>
<path d="M12.0103 5.50146V7.30146V8.39178V8.39928H5.02028H5.01091L4.95278 7.74772L4.8206 6.27865L4.75122 5.50146H12.0103Z" fill="#EBEBEB"/>
<path d="M12 11.3665V13.1665V14.2568V14.2643H8.82281H8.81344L8.75531 13.6127L8.62406 12.1436L8.55469 11.3665H12Z" fill="#EBEBEB"/>
</svg>
