<svg width="24" height="28" viewBox="0 0 24 28" fill="none" xmlns="http://www.w3.org/2000/svg">
<path d="M12.171 16.6999C11.69 16.9209 11.163 17.2089 10.108 17.7879C9.70801 18.0129 9.29001 18.2379 8.90101 18.4499C8.87401 18.4229 8.84601 18.3889 8.81901 18.3609C6.73201 16.1309 2.87201 14.5559 3.03601 11.5609C3.09701 10.4699 3.47201 7.60593 10.449 4.12793C16.191 1.29793 20.76 2.08193 21.549 3.82093C22.683 6.29993 19.1 10.9129 13.17 11.5819C12.5137 11.715 11.8359 11.699 11.1866 11.5349C10.5373 11.3708 9.93326 11.0629 9.41901 10.6339C9.10501 10.2929 9.05801 10.2729 8.94201 10.3409C8.75101 10.4409 8.87401 10.7499 8.94201 10.9269C9.16821 11.3365 9.47422 11.6965 9.84196 11.9858C10.2097 12.275 10.6317 12.4876 11.083 12.6109C13.4166 13.1153 15.8497 12.8743 18.039 11.9219C21.633 10.5309 24.439 6.66393 23.617 3.42193C22.792 0.134925 17.336 -0.949075 12.174 0.884925C8.94128 1.97432 5.95454 3.68923 3.38401 5.93193C0.540006 8.59193 0.0900065 10.9039 0.274006 11.8719C0.936006 15.3089 5.67401 17.5459 7.57401 19.2029C7.47401 19.2579 7.39001 19.3029 7.31501 19.3459C6.36701 19.8169 2.75301 21.7059 1.85201 23.7039C0.829007 25.9679 2.01601 27.5909 2.80001 27.8089C3.98149 28.0919 5.22187 27.9989 6.34792 27.5428C7.47397 27.0867 8.42948 26.2904 9.08101 25.2649C9.63428 24.4146 9.97402 23.4432 10.0713 22.4334C10.1687 21.4236 10.0207 20.4053 9.64001 19.4649C9.86461 19.2858 10.1042 19.1262 10.356 18.9879C10.84 18.7019 11.301 18.4199 11.71 18.2019C13.1104 17.546 14.6386 17.2082 16.185 17.2129C19.431 17.5949 20.072 19.6199 19.949 20.4729C19.8915 20.7756 19.7698 21.0624 19.5921 21.314C19.4144 21.5657 19.1849 21.7764 18.919 21.9319C18.694 22.0749 18.619 22.1229 18.639 22.2249C18.666 22.3749 18.775 22.3679 18.966 22.3409C19.4537 22.1868 19.8834 21.8887 20.1985 21.4859C20.5137 21.0831 20.6997 20.5944 20.732 20.0839C20.832 18.0839 18.925 15.8899 15.549 15.9099C14.5381 15.9117 13.5373 16.1111 12.603 16.4969C12.453 16.5589 12.3073 16.6256 12.166 16.6969L12.171 16.6999ZM7.34601 24.5389C6.26801 25.7119 4.76801 26.1549 4.12001 25.7799C3.42001 25.3799 3.69701 23.6449 5.02001 22.4039C5.80357 21.6979 6.65048 21.0656 7.55001 20.5149C7.70701 20.4149 7.93901 20.2829 8.21801 20.1149C8.26601 20.0879 8.29301 20.0739 8.29301 20.0739L8.45701 19.9739C8.69296 20.765 8.71443 21.6046 8.51922 22.4068C8.324 23.2089 7.91911 23.9447 7.34601 24.5389Z" fill="#CD6799"/>
</svg>
