<svg xmlns="http://www.w3.org/2000/svg" width="64" height="64" fill="none"><g fill="#fff" clip-path="url(#a)"><path d="M54.667 8H9.333a2.667 2.667 0 0 0-2.666 2.667v32a2.667 2.667 0 0 0 2.666 2.666h45.334a2.667 2.667 0 0 0 2.666-2.666v-32A2.667 2.667 0 0 0 54.667 8ZM28.533 32.8a2.533 2.533 0 0 1-.266 4 2.667 2.667 0 0 1-3.6-.4L16.8 28.533a2.533 2.533 0 0 1 0-3.733l7.867-8a3.066 3.066 0 0 1 3.6-.4 2.668 2.668 0 0 1 .266 4.133L22.4 26.667l6.133 6.133ZM47.2 28.533 39.333 36.4a2.666 2.666 0 0 1-3.6.4 2.534 2.534 0 0 1-.266-4l6.133-6.133-6.133-6.134a2.666 2.666 0 0 1 .266-4.133 3.067 3.067 0 0 1 3.6.4l7.867 8a2.533 2.533 0 0 1 0 3.733ZM58.667 50.667H5.333a2.667 2.667 0 1 0 0 5.333h53.334a2.667 2.667 0 1 0 0-5.333Z"/></g><defs><clipPath id="a"><path fill="#fff" d="M0 0h64v64H0z"/></clipPath></defs></svg>