<svg width="64" height="64" viewBox="0 0 64 64" fill="none" xmlns="http://www.w3.org/2000/svg">
<path d="M9.33333 44.9334H54.6667C55.3739 44.9334 56.0522 44.6549 56.5523 44.1592C57.0524 43.6635 57.3333 42.9912 57.3333 42.2902V10.5726C57.3333 9.87158 57.0524 9.19928 56.5523 8.7036C56.0522 8.20792 55.3739 7.92944 54.6667 7.92944H9.33333C8.62609 7.92944 7.94781 8.20792 7.44771 8.7036C6.94762 9.19928 6.66667 9.87158 6.66667 10.5726V42.2902C6.66667 42.9912 6.94762 43.6635 7.44771 44.1592C7.94781 44.6549 8.62609 44.9334 9.33333 44.9334ZM52 13.2157V39.6471H12V13.2157" fill="white"/>
<path d="M52 13.2157V39.6471H12V13.2157M9.33333 44.9334H54.6667C55.3739 44.9334 56.0522 44.6549 56.5523 44.1592C57.0524 43.6635 57.3333 42.9912 57.3333 42.2902V10.5726C57.3333 9.87158 57.0524 9.19928 56.5523 8.7036C56.0522 8.20792 55.3739 7.92944 54.6667 7.92944H9.33333C8.62609 7.92944 7.94781 8.20792 7.44771 8.7036C6.94762 9.19928 6.66667 9.87158 6.66667 10.5726V42.2902C6.66667 42.9912 6.94762 43.6635 7.44771 44.1592C7.94781 44.6549 8.62609 44.9334 9.33333 44.9334Z" stroke="white" stroke-width="1.33333"/>
<path d="M58.6667 50.2196H5.33333C4.62609 50.2196 3.94781 50.4981 3.44771 50.9938C2.94762 51.4894 2.66667 52.1617 2.66667 52.8627C2.66667 53.5637 2.94762 54.236 3.44771 54.7317C3.94781 55.2274 4.62609 55.5059 5.33333 55.5059H58.6667C59.3739 55.5059 60.0522 55.2274 60.5523 54.7317C61.0524 54.236 61.3333 53.5637 61.3333 52.8627C61.3333 52.1617 61.0524 51.4894 60.5523 50.9938C60.0522 50.4981 59.3739 50.2196 58.6667 50.2196Z" fill="white" stroke="white" stroke-width="1.33333"/>
<path d="M39.3333 16.6518C38.8611 16.1939 38.2408 15.9162 37.582 15.8678C36.9233 15.8194 36.2684 16.0035 35.7333 16.3874C35.412 16.6014 35.1444 16.8854 34.951 17.2178C34.7577 17.5502 34.6438 17.9221 34.618 18.3049C34.5923 18.6877 34.6554 19.0713 34.8025 19.4262C34.9496 19.7811 35.1768 20.0978 35.4667 20.3521L41.6 26.4314L35.4667 32.5106C35.1768 32.7649 34.9496 33.0816 34.8025 33.4365C34.6554 33.7914 34.5923 34.175 34.618 34.5578C34.6438 34.9406 34.7577 35.3125 34.951 35.6449C35.1444 35.9773 35.412 36.2614 35.7333 36.4753C36.2684 36.8592 36.9233 37.0433 37.582 36.9949C38.2408 36.9465 38.8611 36.6689 39.3333 36.211L47.2 28.2816C47.4587 28.0463 47.6652 27.7604 47.8064 27.4419C47.9477 27.1234 48.0206 26.7793 48.0206 26.4314C48.0206 26.0834 47.9477 25.7393 47.8064 25.4208C47.6652 25.1023 47.4587 24.8164 47.2 24.5812L39.3333 16.6518Z" fill="white" stroke="white" stroke-width="1.33333"/>
<path d="M28.2667 16.3874C27.7316 16.0035 27.0767 15.8194 26.418 15.8678C25.7592 15.9162 25.1389 16.1939 24.6667 16.6518L16.8 24.5812C16.5414 24.8164 16.3348 25.1023 16.1936 25.4208C16.0523 25.7393 15.9794 26.0834 15.9794 26.4314C15.9794 26.7793 16.0523 27.1234 16.1936 27.4419C16.3348 27.7604 16.5414 28.0463 16.8 28.2816L24.6667 36.211C25.1389 36.6689 25.7592 36.9465 26.418 36.9949C27.0767 37.0433 27.7316 36.8592 28.2667 36.4753C28.588 36.2614 28.8556 35.9773 29.049 35.6449C29.2423 35.3125 29.3562 34.9406 29.382 34.5578C29.4077 34.175 29.3446 33.7914 29.1975 33.4365C29.0504 33.0816 28.8232 32.7649 28.5333 32.5106L22.4 26.4314L28.5333 20.3521C28.8232 20.0978 29.0504 19.7811 29.1975 19.4262C29.3446 19.0713 29.4077 18.6877 29.382 18.3049C29.3562 17.9221 29.2423 17.5502 29.049 17.2178C28.8556 16.8854 28.588 16.6014 28.2667 16.3874Z" fill="white" stroke="white" stroke-width="1.33333"/>
</svg>
