<svg width="79" height="76" viewBox="0 0 79 76" fill="none" xmlns="http://www.w3.org/2000/svg">
<path d="M43.9173 40.6244C45.3995 38.1531 44.535 34.9101 41.9858 33.3811C39.437 31.8524 36.1686 32.6166 34.6864 35.088C33.2039 37.5596 34.0689 40.8027 36.6177 42.3314C39.1669 43.8604 42.4349 43.0961 43.9173 40.6244Z" fill="#53C1DE"/>
<path fill-rule="evenodd" clip-rule="evenodd" d="M59.2747 38.5386C62.5526 35.2829 68.0489 28.8965 65.1779 23.8918C62.3209 18.9097 53.9642 20.1607 49.352 21.1538C48.0484 16.6501 45.048 8.61422 39.2801 8.44804C33.5364 8.28264 30.6612 16.0806 29.3399 20.5424C24.6693 19.2421 16.3718 17.4985 13.4583 22.3562C10.5531 27.2001 15.866 33.9039 19.1893 37.3966C15.8588 40.6825 10.4597 46.8307 13.319 51.8178C16.198 56.8372 24.6167 55.7986 29.2744 54.7916C30.5792 59.3557 33.4166 67.1852 39.1637 67.3508C44.9288 67.5168 48.0193 59.8172 49.3541 55.3329C53.8797 56.5445 62.2764 58.1399 65.1453 53.3564C68.0308 48.5454 62.5601 42.0051 59.2747 38.5386ZM49.988 52.9125C50.538 50.5123 50.9357 47.8475 51.1784 44.994C53.5011 43.4587 55.6139 41.8601 57.4463 40.2466C59.8509 42.7943 65.0812 48.4578 62.9374 52.0322C60.7735 55.6401 53.56 53.8641 49.988 52.9125ZM39.1685 64.8343C34.8806 64.7107 32.7001 57.5429 31.7329 54.1781C34.1158 53.5071 36.6483 52.5845 39.2647 51.4426C41.8925 52.7265 44.4638 53.7908 46.8925 54.595C45.9448 57.7648 43.4754 64.9584 39.1685 64.8343ZM15.5347 50.6246C13.4022 46.9067 18.5632 41.6261 21.0156 39.2051C22.8602 40.929 25.0079 42.6613 27.3946 44.3605C27.6542 47.169 28.0763 49.8607 28.6436 52.3365C25.73 52.967 17.6773 54.3599 15.5347 50.6246ZM15.6662 23.6804C17.8382 20.059 25.2514 21.9969 28.696 22.9602C28.1195 25.3879 27.6887 28.0296 27.4191 30.8004C25.0692 32.3671 22.9092 34.0175 21.0185 35.6898C18.6674 33.2152 13.4929 27.304 15.6662 23.6804ZM39.2751 10.9643C43.5809 11.0885 45.9385 18.4896 46.8883 21.754C44.4491 22.4168 41.8977 23.3067 39.3167 24.3963C36.7548 23.1568 34.2174 22.1119 31.7962 21.2988C32.8629 17.7008 34.9739 10.8403 39.2751 10.9643ZM51.3924 34.8029C52.9205 35.9938 54.3396 37.2099 55.6263 38.4281C54.3507 39.5451 52.9275 40.6596 51.3837 41.7512C51.4817 39.4392 51.4891 37.1204 51.3924 34.8029ZM47.5186 24.2123C47.8954 25.8928 48.1989 27.699 48.4251 29.5968C46.4458 28.2827 44.4075 27.0598 42.3168 25.9314C44.0912 25.2498 45.8353 24.6741 47.5186 24.2123ZM30.1964 29.0416C30.4402 27.1774 30.762 25.3936 31.1548 23.7202C32.8215 24.2848 34.551 24.9665 36.3085 25.7507C34.2176 26.7512 32.1776 27.85 30.1964 29.0416ZM27.1682 41.097C25.5855 39.8987 24.1379 38.6929 22.8502 37.4976C24.1635 36.3426 25.6164 35.1947 27.1791 34.0781C27.0626 36.413 27.0595 38.7559 27.1682 41.097ZM31.1048 51.7178C30.715 49.9953 30.3974 48.1581 30.1592 46.2442C32.1593 47.5497 34.21 48.7798 36.3097 49.9188C34.5077 50.6414 32.764 51.2446 31.1048 51.7178ZM48.4319 46.7204C48.2071 48.6616 47.9035 50.4879 47.5237 52.1699C45.8261 51.6026 44.0479 50.8993 42.2242 50.0751C44.3412 49.0424 46.4154 47.9272 48.4319 46.7204ZM39.263 48.6519C36.002 46.991 32.8532 45.0991 29.8393 43.024C29.5714 39.4362 29.577 35.8354 29.8599 32.2634C32.8679 30.3335 36.0273 28.6312 39.3077 27.177C42.5796 28.8271 45.7334 30.7177 48.7286 32.8292C48.9753 36.3987 48.963 39.9791 48.7233 43.5356C45.7012 45.4551 42.5304 47.1578 39.263 48.6519ZM62.9628 25.0849C65.1043 28.8196 59.8314 34.3595 57.4583 36.7203C55.6017 34.9544 53.4872 33.2008 51.1823 31.5167C50.938 28.704 50.5358 26.0385 49.9842 23.6093C53.3643 22.8838 60.8419 21.3866 62.9628 25.0849Z" fill="#53C1DE"/>
</svg>
